<svg width="156" height="156" viewBox="0 0 156 156" fill="none" xmlns="http://www.w3.org/2000/svg">
<g clip-path="url(#clip0_0_3)">
<path d="M78 156C121.078 156 156 121.078 156 78C156 34.9218 121.078 0 78 0C34.9218 0 0 34.9218 0 78C0 121.078 34.9218 156 78 156Z" fill="#71C5E8"/>
<path d="M73.21 137.85L18.75 82.18L70.54 30.61L109.99 31.04C114.4 31.09 118.53 32.85 121.62 36.01C124.71 39.17 126.39 43.34 126.34 47.75L125.91 87.2L73.22 137.85H73.21ZM27.2 82.24L73.34 129.41L119.93 84.63L120.34 47.7C120.37 44.89 119.3 42.24 117.33 40.22C115.36 38.21 112.73 37.08 109.92 37.05L72.99 36.64L27.2 82.24Z" fill="white"/>
<path d="M73.66 89.48C73.79 88.99 74.02 88.51 74.34 88.04C74.66 87.57 75 87.15 75.35 86.8C75.7 86.45 76.12 86.1 76.61 85.77C77.1 85.44 77.58 85.21 78.07 85.07L79.3 86.3C79.63 86.63 80.07 86.89 80.61 87.08C81.15 87.27 81.75 87.32 82.4 87.25C83.05 87.18 83.76 86.94 84.52 86.55C85.28 86.16 86.06 85.57 86.86 84.78C88.21 83.43 88.93 82.25 89.03 81.25C89.13 80.25 88.86 79.42 88.22 78.78C87.8 78.36 87.37 78.07 86.93 77.92C86.49 77.77 85.95 77.75 85.31 77.89C84.67 78.02 83.91 78.31 83.04 78.77C82.17 79.22 81.09 79.85 79.81 80.64C77.03 82.45 74.49 83.43 72.2 83.57C69.91 83.71 67.77 82.79 65.78 80.8C64.76 79.78 64.05 78.71 63.63 77.58C63.21 76.45 63.04 75.32 63.12 74.18C63.2 73.04 63.5 71.92 64.02 70.8C64.54 69.68 65.21 68.61 66.03 67.57L63.51 65.05L66.73 61.83L69.38 64.48C70.07 64.02 70.74 63.67 71.4 63.45C72.06 63.23 72.62 63.12 73.06 63.12L72.33 62.39C72.42 61.95 72.61 61.51 72.89 61.06C73.18 60.62 73.48 60.24 73.79 59.93C74.1 59.62 74.48 59.32 74.93 59.02C75.38 58.72 75.83 58.53 76.27 58.44L83.17 65.34C83.06 65.8 82.84 66.27 82.52 66.75C82.2 67.23 81.87 67.63 81.54 67.96C81.21 68.29 80.81 68.61 80.35 68.92C79.89 69.23 79.42 69.44 78.96 69.55L78.03 68.62C77.68 68.27 77.25 67.99 76.75 67.78C76.25 67.57 75.71 67.48 75.12 67.51C74.53 67.54 73.91 67.73 73.25 68.06C72.59 68.39 71.9 68.91 71.19 69.62C70 70.81 69.36 71.91 69.27 72.9C69.18 73.9 69.46 74.71 70.1 75.35C70.45 75.7 70.84 75.95 71.26 76.08C71.68 76.21 72.18 76.21 72.77 76.06C73.36 75.91 74.07 75.62 74.91 75.18C75.75 74.74 76.79 74.12 78.03 73.32C79.49 72.39 80.85 71.64 82.11 71.07C83.37 70.5 84.59 70.15 85.76 70.04C86.93 69.93 88.07 70.1 89.18 70.54C90.29 70.98 91.4 71.77 92.53 72.89C93.66 74.01 94.43 75.18 94.85 76.37C95.27 77.56 95.43 78.76 95.33 79.97C95.23 81.18 94.89 82.36 94.3 83.52C93.71 84.68 92.98 85.79 92.1 86.85L95.55 90.3L92.37 93.48L88.82 89.93C88.07 90.46 87.28 90.85 86.45 91.11C85.62 91.36 84.9 91.54 84.28 91.62L85.17 92.51C85.04 93 84.82 93.47 84.51 93.94C84.2 94.4 83.88 94.8 83.55 95.13C83.22 95.46 82.83 95.78 82.37 96.07C81.92 96.37 81.45 96.58 80.96 96.72L73.7 89.46L73.66 89.48Z" fill="#1E1E1E"/>
<path d="M64.3 90.03C64.79 90.27 65.27 90.55 65.74 90.89C66.21 91.23 66.61 91.57 66.96 91.92C67.31 92.27 67.65 92.67 67.99 93.14C68.33 93.6 68.61 94.08 68.85 94.58L60.07 103.36C59.58 103.12 59.1 102.84 58.63 102.5C58.16 102.16 57.76 101.82 57.41 101.47C57.06 101.12 56.72 100.72 56.38 100.25C56.04 99.79 55.76 99.31 55.52 98.81L64.3 90.03Z" fill="#1E1E1E"/>
<path d="M99.35 65.83C103.216 65.83 106.35 62.696 106.35 58.83C106.35 54.964 103.216 51.83 99.35 51.83C95.484 51.83 92.35 54.964 92.35 58.83C92.35 62.696 95.484 65.83 99.35 65.83Z" fill="white"/>
</g>
<defs>
<clipPath id="clip0_0_3">
<rect width="156" height="156" fill="white"/>
</clipPath>
</defs>
</svg>
